<?xml version="1.0" encoding="utf-8"?>
<!-- Generator: Adobe Illustrator 28.3.0, SVG Export Plug-In . SVG Version: 6.00 Build 0)  -->
<svg version="1.1" id="Layer_1" xmlns="http://www.w3.org/2000/svg" xmlns:xlink="http://www.w3.org/1999/xlink" x="0px" y="0px"
	 viewBox="0 0 685.4 682.7" style="enable-background:new 0 0 685.4 682.7;" xml:space="preserve">
<style type="text/css">
	.st0{fill:#FFFFFF;}
</style>
<g>
	<path class="st0" d="M45.1,440.1c-1.2,5.6-2.3,10.4-3.1,15.3c-0.1,0.9,1.5,2.4,2.6,3c29.1,14.4,58.2,28.6,87.3,42.9
		c61.6,30.3,123.2,60.6,184.7,90.9c4.9,2.4,10,4.6,14.8,7.2c2.4,1.3,4.1,1.1,6.3-0.7c33.8-27.9,67.7-55.7,101.6-83.4
		c38.2-31.3,76.5-62.6,114.7-93.9c31.7-25.9,63.3-51.9,95-77.9c1.2-1,2.4-2.1,3.9-3.4c-4-3.5-8.2-6.6-6.2-12.9
		c4.1,2.1,8.3,4,12.2,6.4c6.7,4.2,7,10.7,0.9,15.7c-12.8,10.6-25.5,21.2-38.4,31.8c-64.6,53-129.1,105.9-193.7,158.8
		c-29.7,24.4-59.5,48.7-89.4,72.9c-1,0.8-3.3,0.9-4.5,0.4c-15.6-7.3-31.1-14.7-46.6-22.3c-54.2-26.6-108.4-53.3-162.6-80
		c-26.5-13.1-53.1-26.1-79.6-39.2c-0.7-0.3-1.3-0.6-2.8-1.2c0.4,2.8,0.6,5.1,1,7.2c0.6,2.7,1.5,5.3,2.2,7.9c0.7,2.9,1.7,5.3,5.2,6
		c1.2,0.2,2.4,1.3,3.4,2.2c2.9,2.4,2.7,4.9-0.5,7.4c2.1,3.1,4.1,6,6.2,9c2.3-1.7,4.2-3.1,6.1-4.5c2.4-1.8,4.8-1.5,6.7,0.7
		c2.1,2.4,1.1,4.7-1,6.5c-2.4,2.1-5.2,4-7.4,6.3c-1.2,1.3-2.2,3.3-2.3,5c-0.3,5.9-0.4,11.8,0,17.6c0.5,6.3-3,10.8-6.5,16.4
		c-1.3-4.4-2.6-7.9-3.4-11.5c-0.6-2.8-1.9-4.5-4.5-5.9C21,525.5,5.2,502.7,1,472.7c-4.6-33.4,6.3-61.5,32.1-83.5
		c3-2.6,6.4-4.8,9.2-7.6c1.4-1.4,2.8-3.6,2.8-5.5c0.2-36.7,0.2-73.4,0.2-110.1c0-2-0.6-3-2.6-3.8C31.1,257.6,25,246,27.5,233.3
		c2.2-11.4,12-19.5,24-19.8c12.1-0.3,22.6,7.9,25.3,19.8c2.6,11.4-3.4,23.5-14.4,28.3c-2.1,0.9-3,1.9-3,4.3c0,33.6,0,67.2,0,100.8
		c0,0.7,0.1,1.4,0.2,2.8c1.8-1.4,3.3-2.4,4.7-3.6c9.9-8.2,19.7-16.5,29.6-24.7c2-1.6,2.7-3.3,2.7-5.7c-0.1-42.7-0.1-85.4-0.2-128.1
		c0-1.5-0.6-3.3-1.6-4.3C83.9,192.5,73.1,182,62,171.7c-1-0.9-3.4-0.7-5.2-0.5c-11,1.1-21.6-6.2-24.6-17.1
		c-2.8-10.3,2.4-22.1,11.9-26.6c9.4-4.5,21.4-2.2,28.2,5.4c7.1,7.9,7.8,18.5,1.5,29c4,4,8,8.2,12.2,12.3
		c6.7,6.6,13.4,13.1,20.1,19.6c2.9,2.8,4.3,5.8,4.3,10.1c-0.2,39.8-0.1,79.7-0.1,119.5c0,1.4,0,2.7,0,5.1c1.7-1.4,2.8-2.2,3.9-3.1
		c3.5-2.9,6.8-5.9,10.4-8.6c3.1-2.3,4.1-5.1,4.1-8.9c-0.1-48-0.4-95.9,0.3-143.9c0.1-9.6-2.6-16.1-9.7-22.1
		c-7.8-6.6-14.9-14.1-22.2-21.2c-1.6-1.6-3.1-2-5.3-1.5c-8.7,2-17.1-2-21.3-10c-4-7.6-2.2-17.1,4.4-23.3c6.3-5.9,16.8-6.6,24.4-1.8
		c7,4.5,10.3,13.6,7.5,21.7c-0.8,2.4-0.2,3.7,1.4,5.2c9.7,9.5,19.3,19.2,29.2,28.5c3.8,3.6,5.3,7.5,5.2,12.8
		c-0.2,48.8-0.2,97.7-0.2,146.5c0,1,0,2,0,3.6c1.4-0.9,2.3-1.4,3.1-2c6.9-5.7,13.9-11.4,20.7-17.3c1-0.9,1.8-2.7,1.8-4.1
		c0-47.6,0-95.2-0.1-142.7c0-1.8-0.7-3.6-1.5-5.2c-0.9-1.9-2.4-3.5-3.5-5.3c-2.5-4.5-5.3-6.7-11.3-6.3c-9.7,0.7-16.9-4.9-21-13.6
		c-4-8.3-3-16.7,2.5-24c5.6-7.4,13.4-10.4,22.5-8.8c17.4,3,25.3,20.3,16.7,35.7c-0.6,1.1-0.6,3.3,0.1,4.1c7.9,9.7,9.7,20.7,9.5,33.1
		c-0.6,40.2-0.2,80.4-0.1,120.6c0,1.3,0.1,2.6,0.2,4.8c4.6-3.8,8.3-7.5,12.6-10.3c6.5-4.3,8.3-9.8,8.3-17.6
		c-0.4-44.7-0.2-89.4-0.2-134.1c0-3.3,0.3-6.5-3.2-8.9c-1.6-1.1-2.7-4.2-2.6-6.3c0.4-7-3.1-11.9-7.7-16.3c-0.7-0.7-1.4-1.4-2.2-2
		c-2.2-2-3.3-4.4-1.1-6.9c2-2.3,4.8-1.5,6.8,0.2c2.4,2.1,4.3,4.8,6.9,7.8c0-5.4,0.1-10.4,0-15.4c-0.1-6.8,0.8-7.9,7.6-7.8
		c2.2,0,4.5,0,6.7,0.1c4,0.2,5.9,2.1,5.9,6.1c0,5.5,0,10.9,0,16.7c10-8.9,12-20.9,5.2-29.9c-4.4-5.8-10.3-8.2-17.4-7.3
		c-7.4,1-12.6,5-15.3,12.1c-0.4,1.2-0.6,2.4-1,3.6c-0.7,2.5-2.2,4-4.9,3.6c-2.7-0.4-3.7-2.4-3.4-4.9c0.7-7.1,4.2-12.8,9.5-17.2
		c9.9-8.2,23.9-8.4,34.3-0.5c9.8,7.3,13.5,21.4,8.3,33c-2,4.5-5.2,8.5-8.1,12.5c-2.8,3.7-5,7.3-4.7,12.2c0.2,3.6-1.5,6.3-4.5,8.5
		c-1,0.7-1.5,2.9-1.5,4.5c-0.1,32.8-0.1,65.7-0.1,98.5c0,11.9,0,23.7,0,35.6c0,0.7,0.1,1.4,0.1,2.8c3.7-3.1,7.1-5.8,10.4-8.5
		c8.3-7,16.6-14,24.8-21.1c1.3-1.1,2.3-3.3,2.3-5c0.2-26.2,0.1-52.4,0.2-78.7c0-2.2-0.8-3.2-2.8-4.1c-11.5-5.4-17.1-17.6-13.9-30
		c2.9-11.4,13.6-19,26-18.3c12.4,0.6,22,9.5,23.9,21.9c1.6,10.7-5.3,21.9-16.4,26.8c-0.8,0.3-1.6,0.7-2.5,1.1c0,24.2,0,48.4,0,73.4
		c1.7-1.2,3-2,4.1-3c22.5-18.6,45-37.3,67.4-56c1-0.8,1.7-2.5,1.7-3.8c0.1-28.5,0.1-56.9,0.1-85.4c0-1.9-0.4-2.9-2.6-3.7
		c-11.3-3.9-18.1-16-16.1-28.1c1.9-11.8,11.4-20.1,23.9-20.9c12-0.8,22.7,7.1,25.8,19.1c2.9,11.4-2.7,23.8-13.5,28.8
		c-2.7,1.3-3.5,2.7-3.5,5.5c0.1,24.7,0.1,49.5,0.1,74.2c0,0.9,0.1,1.7,0.2,3.1c6.5-3.4,13.3-4.9,20.1-3.2c5.8,1.4,11.3,3.9,16.8,6.3
		c11.3,5,22.4,10.4,33.6,15.6c0.8,0.4,1.6,0.6,2.8,1c0-4.4,0-8.5,0-12.6c0-10.6,0.1-21.2-0.1-31.8c0-1.4-1.3-2.8-2-4.2
		c-1.3-2.5-3.7-5.1-3.6-7.5c0.3-7-3.6-11.4-7.8-15.9c-1.1-1.2-2.4-2.2-3.6-3.3c-1.9-1.9-3.3-4.1-1.1-6.5c2.1-2.3,4.8-2,7-0.1
		c2.2,1.9,4.1,4.3,6.6,7c0-5.5,0-10.4,0-15.4c0-4.7,1.5-6.4,6.2-6.5c2.7-0.1,5.5-0.1,8.2,0c4.8,0.1,5.9,1.3,5.9,6.1
		c-0.1,5.7,0,11.4,0,17.9c4.9-6.4,9.7-11.9,9.2-19.8c-0.9-14.8-15.4-23.1-28.9-16.7c-5,2.4-7.3,2.3-8.7-0.5c-1.2-2.4,0.5-4.8,5-7.2
		c11.4-6,24.9-3.7,33.7,5.6c8.6,9.1,9.9,23.4,3.2,34.4c-1.3,2.1-2.7,4.2-4.3,6.2c-3.4,4.4-6.3,8.8-5.9,14.9c0.1,2-1.2,4.9-2.9,6.2
		c-2.3,1.9-2.6,4-2.5,6.5c0.1,5.7,0,11.4,0,17.9c1.9-1.7,3.5-3,5-4.3c10.9-10.1,21.8-20.2,32.8-30.2c2.7-2.4,3.3-4.4,2.1-8
		c-4.4-12.8,2.5-26.3,15-29.9c13.4-3.9,26.3,3.2,29.8,16.5c4.5,16.8-11.8,33-28.8,28.4c-2.8-0.8-4.5-0.2-6.6,1.7
		c-15.2,13.8-30.4,27.5-45.7,41c-2.5,2.2-3.1,4.5-3.5,7.6c-0.9,6.9,1.5,10.5,8.2,13.3c19.4,8.2,38.4,17.3,57.6,26.1
		c1,0.4,2,0.8,3.2,1.2c0-9.2,0.5-18-0.2-26.8c-0.3-3.5-3.3-6.9-5.3-10.2c-0.3-0.5-1.8-0.6-2.7-0.5c-9.1,0.6-15.9-3.3-18.8-11
		c-2.9-7.5-0.4-16.4,5.9-21.2c6.1-4.7,15.5-4.6,22.1,0.3c5.9,4.3,8,12.1,5.9,19.9c-0.4,1.5-0.3,3.9,0.6,5.1
		c5.3,7.4,7.3,15.5,6.6,24.7c-0.6,7.6,0,15.2-0.2,22.8c-0.1,2.7,0.9,3.9,3.2,5c7.5,3.3,15,6.9,22.5,10.3c1,0.5,2,0.8,3.4,1.3
		c0-35,0-69.7,0-103.7c-4-3.2-8.3-5.7-11.4-9.2c-9.7-11.2-7.6-28.5,4.1-36.8c11.9-8.4,28.7-5,36.2,7.5c7.8,12.9,2.9,28.9-11.1,35.7
		c-3.1,1.5-3.6,3.2-3.6,6.2c0,34.6,0,69.2-0.1,103.8c0,2.3,0.5,3.5,2.8,4.5c11.8,5.3,23.5,10.9,35.7,16.6c0.1-1.8,0.2-3,0.2-4.2
		c0-45.5,0-90.9,0.1-136.4c0-3.4-0.9-5.4-4-7.3c-12.4-7.7-15.9-23.6-8.1-35.3c7.9-12,23.6-15.2,35.6-7.2
		c8.3,5.6,11.7,13.9,10.7,23.7c-1.1,9.9-6.7,16.9-16,20.4c-3.3,1.3-4.3,2.7-4.3,6.1c0,31.6-0.1,63.2-0.1,94.8c0,1,0.1,2,0.2,3.4
		c1-0.7,1.8-1.2,2.5-1.8c8.6-7.8,17.2-15.6,25.6-23.6c1.4-1.3,2.3-3.8,2.4-5.8c0.3-5,0-10,0.1-15c0.1-2.6-0.6-3.9-3.1-5
		c-13.3-6.4-18.1-23.4-10.5-36.2c7.2-12.2,24.2-15.8,36.1-7.4c8.1,5.7,11.7,14,10.4,23.8c-1.3,9.6-6.7,16.6-15.7,20.3
		c-2.4,1-3.2,2.1-3.2,4.5c0.1,7.2,0.2,14.5-0.1,21.7c-0.1,1.8-1.1,4.1-2.4,5.4c-12.4,11.3-24.8,22.4-37.4,33.4
		c-3.5,3.1-5.5,6.2-5.1,11.2c0.5,5.9,0.3,12,0,18c-0.2,3.6,0.9,5.5,4.3,7c15.9,7.1,31.8,14.5,47.5,22c11.1,5.3,12.3,15.8,2.9,23.5
		c-36.3,29.8-72.6,59.6-108.9,89.3c-54.5,44.6-109,89.1-163.6,133.7c-17,13.9-34.1,27.7-51.1,41.6c-7.2,5.9-14.6,6.5-22.9,2.3
		c-52.4-26-104.9-51.9-157.4-77.8c-29.9-14.7-59.9-29.3-89.8-43.8c-2.8-1.4-4.5-3.2-5.4-6.2c-3-9.5,0-19.6,8.4-26.5
		c24.5-20,49.1-39.7,73.5-59.7c46.8-38.4,93.6-76.8,140.3-115.4c30.5-25.2,60.8-50.6,91.3-75.9c1.7-1.4,3.3-2.9,5.4-4.8
		c-3.4-1.7-6.3-3.4-9.3-4.6c-0.9-0.3-2.6,0.5-3.5,1.2c-15.6,12.9-31.1,25.8-46.7,38.8c-38.8,32.2-77.5,64.6-116.4,96.6
		C174,313.4,128,350.8,81.9,388.2c-10.7,8.6-17.6,18.9-17.9,33.1c-5.5,1.2-10.2,3.5-13.5,8.6c3.8,1.9,7.4,3.6,10.9,5.4
		c45.8,22.6,91.5,45.2,137.3,67.7c41.4,20.4,82.8,40.8,124.2,61.2c4,2,8.2,3.8,12.1,6c2.5,1.5,4.6,1.3,6.9-0.2
		c2.6-1.7,5.3-3.3,7.9-5.1c2.1-1.4,4.3-1.7,6,0.4c1.7,2.2,1,4.3-1,5.9c-4.4,3.4-9,6.7-13.4,10.1c-2.7,2.1-5.3,1.9-8.3,0.4
		c-22.8-11.3-45.7-22.4-68.6-33.6c-59.9-29.5-119.8-59.1-179.7-88.6C71.9,453.3,59,447,45.1,440.1z M477,297.4c4-3,7.8-5.2,10.7-8.2
		c5.5-5.6,11-6.2,17.2-1.5c0.9,0.7,2,1,3,1.5c4.8,2.5,9.6,4.4,15.2,4.6c4.8,0.2,9.5,1.8,14.3,2.9c0.7,0.2,1.4,0.7,1.8,1.2
		c4.3,4.8,9.9,5.4,15.8,4.5c5.7-0.8,10.3-4.8,9.3-9.4c-1.2-5.5,2.3-6.9,5.3-9.1c1.4-1,2.8-2.3,4.4-2.9c1.4-0.6,3.2-0.9,4.6-0.5
		c4.6,1.5,9.1,1.7,13.6,0.2c4.6-1.5,7.4-5,7.6-9.2c0.2-4.2-2.1-8.1-6.6-10c-7-2.9-13.6-2.1-19.7,2.9c-7.5-3.8-14.9-7.9-22.6-11.4
		c-46.4-21.6-92.8-43.1-139.2-64.6c-3.1-1.4-5.9-2.5-7-6.3c-0.5-1.6-2.9-3.1-4.7-3.9c-4.7-2.1-9.7-2.2-14.6-0.2
		c-3.9,1.6-6.4,4.3-6.7,8.6c-0.4,4.6,1.7,8,5.7,10.1c5.6,2.8,11.3,2.2,17-0.1c1.2-0.5,2.8-0.6,4-0.2c3.2,1.1,6.2,2.6,9.2,4.1
		c48.4,22.5,96.8,45,145.2,67.6c3.1,1.4,6.1,2.9,9.5,4.5c-3.6,2.5-6.6,4.9-9.9,6.8c-1.6,1-3.8,1.4-5.7,1.4
		c-6.2-0.2-11.7,0.9-15.5,6.3c-0.5,0.7-1.8,1.3-2.6,1.2c-11.1-2.1-21.4-6.2-31.6-11.9c3.8-2.8,7.3-5.3,10.8-7.9
		c2.9-2.1,2.3-5.1-0.8-6.8c-3.2-1.8-5.5-0.8-8.1,1.2c-13,9.9-26.1,19.7-39.2,29.5c-4,3-3.7,9.3,0.8,11.4c18.6,9,37.3,18,56,26.9
		c5.2,2.5,9,0.7,11.7-5.2C516,316.1,496.9,306.9,477,297.4z M297.6,329.9c-1.5-0.9-2.6-1.5-3.7-2.1c-13.9-6.7-27.9-13.4-41.8-20.1
		c-10.6-5.1-10.6-5-20.2,2c-4.1,3-7.9,6.2-13.1,7.5c-5.5,1.4-8.4,6.3-7.9,11.3c0.4,4.3,3.8,7.5,9.4,8.8c0.8,0.2,1.6,0.6,2.3,0.9
		c-0.9,3-15,13.9-21.4,16.7c-4.8-4.9-10.2-6.6-16.2-5.4c-9.8,2.1-12.9,10.9-7.1,17.2c0.1,0.1-0.1,0.5-0.1,0.9
		c-7.4,5.3-14.8,10.7-22.2,16c-6.4-5.4-13.8-6.4-20.3-2.9c-7.2,3.9-7.6,13.3-0.8,17.8c5.3,3.5,18.1,3.6,21.6-4
		c0.2-0.5,0.7-1,1.2-1.3c9-6.3,18-12.6,27.1-18.7c2.1-1.4,4.6-2,6.9-3.1c2.5-1.1,5.2-1.9,7.4-3.5c2.3-1.6,3.3-5.4,7.3-3.6
		c0.4,0.2,1.3-0.7,1.9-1.1c6.9-5.1,13.8-10.4,20.9-15.2c3.6-2.5,5.1-5.3,4.7-9.6c-0.3-3,0.6-6.1,0-9c-1.4-6.4,1.5-10.1,6.6-13.2
		c2.1-1.3,3.5-1.5,5.7-0.4c13.6,6.6,27.3,13,40.9,19.3c1,0.5,2.7,1.1,3.4,0.7C292.5,334.2,294.8,332.1,297.6,329.9z M285.7,353.7
		c0.6,0.7,0.7,0.9,0.9,1c14.3,6.9,28.5,13.7,42.8,20.5c0.8,0.4,2.4-0.1,3.2-0.7c9.8-7.5,19.6-15.1,29.3-22.6
		c4.1-3.2,8.2-6.3,12.7-9.8c-15.1-7.3-29.5-14.4-44-21.3c-0.9-0.4-2.7,0.1-3.6,0.8c-4.6,3.4-9,7.1-13.5,10.7
		C304.3,339.2,295.1,346.4,285.7,353.7z M332.6,270.6c2.3-1.8,3.9-3.6,5.9-4.6c4.4-2.3,5.9-5.7,5.2-10.4c-0.4-2.5,0.6-4.2,2.7-6
		c6-5,4.8-13.6-2.5-16.3c-3.7-1.4-8.1-1.7-12-1.2c-5.9,0.7-9.6,4.9-9.8,9.7c-0.2,4.9,3.4,9,9.2,10.8c1.1,0.3,2.8,1.2,2.9,2.1
		c0.2,1-0.8,2.5-1.8,3.2c-4,3.1-8.3,6-12.4,9.1c-4.2,3.2-3.9,6.8,0.8,9c10.7,5,21.6,9.8,32.1,15.2c4.7,2.4,7.9,1.9,12-1.2
		c19.5-15.1,39.3-29.9,59-44.9c5.9-4.4,11.8-8.8,17.6-13.4c1.1-0.9,2.3-2.8,2-3.8c-0.6-2.3-8.4-3.9-10.4-2.4
		c-11.1,8.3-22.1,16.7-33.2,25c-13.2,9.9-26.3,19.8-39.5,29.6c-1.1,0.8-3.2,1.6-4.3,1.2C348.5,278,340.9,274.4,332.6,270.6z
		 M327.4,481.4c3.7-2.9,7.1-5.4,10.5-8.2c2.4-2,4.6-3.2,8.1-2.2c2.5,0.7,5.5,0.3,8.1-0.4c6.3-1.5,9.1-6.1,7.5-12.4
		c-0.5-2.1,0.4-2.9,1.7-3.9c14.4-11.1,28.8-22.3,43.2-33.4c4.5-3.5,4.3-5.1-0.8-7.7c-11.5-5.7-23.1-11.3-34.6-17.1
		c-2.3-1.1-3.9-1.2-5.6,0.7c-0.7,0.7-1.6,1.2-2.3,1.9c-2.9,2.3-3,3.1,0.4,4.9c3.2,1.8,6.5,3.2,9.7,4.8c6.6,3.3,13.3,6.6,20.2,10
		c-12.5,9.6-24.5,18.7-36.4,28c-2.8,2.2-5.3,3.8-9.3,3.6c-6.1-0.3-12.2,3.8-12.2,8.4c0,4.6-2.7,6.6-5.6,8.8
		c-2.6,1.9-5.4,3.7-7.8,5.8c-1.2,1-2.3,2.8-2.3,4.3c0.1,3.3-1.3,4.8-4.2,6c-4.2,1.8-6.6,5.3-6.3,10.1c0.3,4.8,3.2,8.2,7.6,9
		c4,0.8,8.4,0.6,12.4-0.1c4.1-0.8,6.5-4,7.1-8.3c0.6-4.1-1.2-7.3-4.4-9.7C330.9,483.4,329.5,482.7,327.4,481.4z M427.8,375.5
		c5.6-4.1,10.7-7.8,15.8-11.5c3.4-2.5,3.1-7-0.7-8.9c-11-5.3-22.2-10.3-33-15.9c-3.7-1.9-6.1-1.8-9.1,1c-3.9,3.7-4.1,3.9,0.6,6.1
		c9.9,4.7,19.8,9.3,30,14.2c-2.3,1.8-4.3,3.2-6.1,4.9c-4.4,4.1-8.9,5.3-14.1,1.4c-3-2.2-5.7-2-8.6,0.6c-3.9,3.4-4.2,4.1,0.5,6.4
		c12.6,6.3,25.3,12.5,37.9,18.7c1.4,0.7,3.3,1,4.2,2.1c4.5,5.7,10.6,6.1,17,5.1c5.7-0.9,9.3-4.9,9.6-10c0.3-4.7-2.8-9-7.9-10.5
		c-6.2-1.9-12-1-17.4,2.9c-0.9,0.6-2.5,1.1-3.4,0.7C438.1,380.7,433.3,378.2,427.8,375.5z M176.3,421.6c0-0.1,0.1-0.2,0.1-0.4
		c1.4-0.1,2.8-0.1,4.1-0.3c6.1-1.1,10.4-6.2,9.2-11.6c-0.7-3.3,0.5-4.8,2.7-6.4c24.1-17.6,48.2-35.2,72.2-52.8
		c2.5-1.8,3.7-5.8,2.2-7.7c-1.5-2-5.4-2.3-8-0.5c-25.4,18.6-50.8,37.2-76.2,55.7c-1.5,1.1-3.6,1.2-5.4,1.8
		c-3.6,1.1-7.7,1.4-10.8,3.4c-6.4,4.2-5.2,13.6,1.8,16.7C170.9,420.5,173.6,420.9,176.3,421.6z M373.1,328.7c2.7,1.3,4.8,2,6.6,3
		c2.5,1.5,4.3,1.1,6.7-0.6c33.9-25.5,67.9-50.9,101.8-76.4c1.1-0.9,1.9-3.3,1.6-4.7c-0.6-2.5-7.1-3.9-9.2-2.2
		c-33.4,25-66.7,50-100,75.1C378.1,324.6,375.8,326.5,373.1,328.7z M351.3,316.4c11.1,6.3,8.1,6,16.3-0.1c20.7-15.4,41.3-31,62-46.4
		c11.7-8.8,23.4-17.5,35.1-26.2c2.2-1.6,2.6-4.6,0.9-5.9c-3.8-2.9-6.5-2.8-10.5,0.2c-0.6,0.5-1.2,0.9-1.8,1.4
		c-32.1,24.1-64.2,48.3-96.2,72.4C355.1,313.1,353.4,314.7,351.3,316.4z M318.6,392.8c-5.9-4.7-7.8-4.7-11.5,1.1
		c-0.6,1-0.9,2.3-0.9,3.5c-0.1,4.7,0.1,9.5-0.1,14.2c0,1.3-0.6,3.1-1.5,3.8c-12,9.2-24.1,18.2-36.3,27.1c-1.1,0.8-3.1,1-4.4,0.6
		c-4.5-1.4-8.9-1.3-13.2,0.4c-4.6,1.8-7.5,6.5-6.9,10.9c0.7,5.6,5.8,9.3,13,9.5c7.7,0.2,13.3-3.1,14.5-8.6c0-0.1,0-0.3,0.1-0.4
		c0.7-1.2,1.1-2.7,2.1-3.5c10-7.7,20.1-15.2,30.1-22.8c4.3-3.3,10.2-6,12.4-10.4c2.2-4.4,0.6-10.7,1-16.2
		C317.3,399.1,318,396.3,318.6,392.8z M297.1,463.8c1.3-1.1,2.5-2.3,3.9-3.3c17.3-13.3,34.6-26.6,52-39.8c2.6-2,3.1-4.2,2.1-6.8
		c-0.7-1.9-5.9-2.9-7.6-1.6c-19.6,15-39.2,30.1-58.8,45c-2,1.5-4.2,2.9-6.6,3.9c-5.4,2.2-8.8,6.6-8.2,11.6c0.6,5.7,5.9,9.7,13.1,9.9
		c7.9,0.2,13-3.1,13.7-9.2c0.2-1.8-0.3-3.7-0.9-5.4C299.3,466.7,298.1,465.4,297.1,463.8z M466.5,341.2c-0.4,4.5,1.3,7.8,4.9,9.7
		c5.5,3,11.3,3.1,16.9,0.3c7.4-3.7,7.9-13.6,0.7-17.6c-3.2-1.8-7.3-1.8-11-2.7c-2-0.5-4.2-0.6-6-1.4c-11.4-5.4-22.6-11-34-16.4
		c-1-0.5-2.7-0.8-3.4-0.3c-6,4-12,8.1-17.7,12.5c-2.3,1.7-1.6,4.2,0.8,5.7c3.8,2.3,7.1,2.7,10.4-1c1.7-1.9,4.3-3,6.3-4.7
		c1.7-1.5,3.2-1.3,5.1-0.4c8,4,16.1,7.8,24.3,11.7C465.8,337.6,467.7,338.7,466.5,341.2z M236.1,406.1c9,1,14.8-5.4,12.6-12.2
		c-0.3-0.8,0.7-2.6,1.6-3.2c6.5-4.9,13.1-9.6,19.7-14.3c2.7-1.9,4-4.8,2.7-6.5c-1.9-2.5-6.6-3.5-8.9-1.8c-7.5,5.6-15,11.2-22.6,16.6
		c-1.5,1.1-3.5,1.8-5.3,2c-6.3,0.7-10.2,4.9-10.2,11.1c0,1.4-1,3.2-2.1,4.1c-8,6.2-16.2,12.1-24.3,18.1c-2.3,1.7-4.7,3.6-2.7,6.7
		c1.8,2.7,6.2,3,8.8,1.1c8.6-6.4,17.1-12.9,25.7-19.3C232.5,407.4,234.4,406.9,236.1,406.1z M295.3,380.7c-10-5.8-7.4-5.8-13,1.9
		c-1.4,1.9-2.4,4.1-3.9,5.9c-2.2,2.8-4.3,5.8-7.1,7.9c-16.3,12.5-32.9,24.7-49.3,37.1c-1.3,1-2.4,2.5-3.2,3.9
		c-0.3,0.7,0.1,2.3,0.7,2.9c3.4,3.1,6.1,3.2,9.8,0.3c14.7-11,28.9-22.5,44.1-32.9C283.8,400.9,290,391.4,295.3,380.7z M318.8,313.5
		c-2.3-1.3-4-2.4-5.7-3.2c-10.4-5.1-20.8-10.2-31.3-15.3c-1.8-0.9-2.4-2.1-2.8-4.2c-0.5-2.8-1.9-6.1-4-7.9c-5-4.1-13.3-3.8-18.7-0.2
		c-5.8,3.8-6.5,10.9-1.4,15.6c4.3,3.9,9.5,4.4,15.1,3.9c1.9-0.2,4.2,0.1,5.9,1c10.9,5,21.6,10.3,32.4,15.4c0.9,0.4,2.3,0.7,3.1,0.2
		C313.8,317.4,316,315.6,318.8,313.5z M359.7,228.4c0,6.3,0.1,12.8,0,19.2c-0.1,4.1,1.8,7.2,5.7,7.4c2.5,0.1,5.5-1.3,7.6-2.8
		c0.7-0.6,0.2-4.5-1-5.5c-2-1.6-2.3-3.3-2.3-5.5c0-3,0.2-6-0.1-9c-0.2-2.8,0.4-4.8,3.1-6.4c3.5-2,5.7-5.4,5-9.7
		c-0.8-4.7-3.9-7.4-8.3-8.6c-1.7-0.5-3.4-0.7-5.2-0.8c-6.8-0.2-12.5,3.3-13.7,8.2c-1.3,5.3,1.8,9.9,8.7,13.1
		C359.3,228,359.4,228.1,359.7,228.4z M378.7,386.8c1.6,0.9,3,1.7,4.5,2.4c12.1,5.8,24.2,11.7,36.4,17.4c2.6,1.2,3.8,2.6,3.6,5.6
		c-0.3,4.5,0,9-0.1,13.5c-0.1,3.2,1.2,4.5,4.4,4.3c3-0.2,5.8,0,5.6-4.4c-0.2-7,0-14-0.2-20.9c0-1.2-1.1-3-2.2-3.6
		c-13-6.4-26-12.7-39-18.9C385.8,379.4,382.6,380.5,378.7,386.8z M293.6,283.6C293.6,283.6,293.6,283.6,293.6,283.6
		c0,1.9-0.1,3.7,0,5.6c0.2,3.7,3.5,4.3,5.9,4.6c2.3,0.3,4.3-1.7,4.3-4.6c0-2.7,0.1-5.5-0.1-8.2c-0.2-3.1,0.5-5.4,3.2-7.6
		c6.7-5.5,4.7-14.9-3.6-17.2c-3.6-1-7.7-0.9-11.4-0.2c-5,0.9-8,4.4-8.3,8.4c-0.4,4.7,1.7,8.6,6.6,10.6c2.9,1.2,3.7,2.8,3.4,5.6
		C293.5,281.6,293.6,282.6,293.6,283.6z M340.7,398.2c1-0.3,1.3-0.3,1.4-0.5c13.8-10.7,27.6-21.4,41.4-32.2c0.6-0.5,1.3-1.3,1.3-2.1
		c0.1-3.6,0.1-7.1,0.1-10.7c-0.5,0.1-0.8,0-1,0.1c-13.9,10.8-27.8,21.6-41.6,32.4c-0.8,0.6-1.5,1.8-1.5,2.8
		C340.6,391.4,340.7,394.6,340.7,398.2z M386,233.9c1.1,1.5,1.8,2.9,2.9,3.5c2.2,1.2,4.4,2.7,7.2,0.5c6.6-5.3,13.3-10.5,20.2-15.4
		c2.7-1.9,3.1-4.1,2.1-6.7c-0.7-1.8-6.3-2.5-8-1.2c-7.1,5.2-14.3,10.4-21.4,15.7C387.9,231.1,387.2,232.4,386,233.9z M261.7,112.5
		c5.7,0,10.1-4.2,10.1-9.7c0-5.1-4.6-9.7-9.9-9.8c-5.4-0.2-10.4,4.5-10.4,9.7C251.5,108,256.1,112.4,261.7,112.5z M670.3,116.7
		c0-5.4-4.5-9.9-10-10c-5.4-0.1-9.9,4.5-9.9,10c0,5.2,4.6,9.8,9.7,9.8C665.5,126.6,670.3,122,670.3,116.7z M562.1,69
		c-5.2,0-9.6,4.4-9.6,9.5c0,5.6,4.2,9.8,10,9.8c5.5,0,9.7-4.3,9.6-9.8C572,73.3,567.5,68.9,562.1,69z M347.7,15.5
		c-5.3,0-9.7,4.5-9.6,9.9c0.1,5.2,4.7,9.6,10.1,9.5c5.2-0.1,9.6-4.4,9.6-9.5C357.8,19.9,353.2,15.5,347.7,15.5z M616.6,53.7
		c-5.3,0-9.8,4.5-9.7,9.8c0.1,5.1,4.5,9.3,9.8,9.2c5.4,0,9.7-4.2,9.8-9.3C626.5,58.2,622,53.7,616.6,53.7z M52,248
		c5.6,0.1,9.8-3.8,9.9-9.4c0.1-5.1-4.3-9.4-9.5-9.5c-5.2-0.1-9.8,4.1-9.9,9.1C42.2,243.6,46.5,247.9,52,248z M320.8,289.2
		c-1.9,9.2-1.5,10,6.3,13.8c2.5,1.2,5.1,2,7.4,3.6c4,2.8,7.2,2.2,10.7-1.1c2.8-2.7,3-3.6-0.4-5.3c-6.7-3.3-13.5-6.4-20.2-9.6
		C323.3,290.1,322,289.7,320.8,289.2z M207.6,62.3c0,5.3,0,10.4,0,15.9c1.3-0.1,2.6-0.1,3.8-0.2c0-5.5,0-10.6,0-15.8
		C210.2,62.3,209.3,62.3,207.6,62.3z M436.4,78.1c0-5.6,0-10.7,0-15.9c-0.3-0.2-0.7-0.4-1-0.6c-0.9,0.8-2.5,1.6-2.5,2.4
		c-0.2,4.6-0.1,9.3-0.1,14.1C434.2,78.1,435.3,78.1,436.4,78.1z"/>
	<path class="st0" d="M452.5,595.1c-6.3,5.3-12.1,10.1-17.9,15c-26,21.8-52.2,43.5-78.1,65.4c-10,8.4-20.5,9.4-32,3.7
		c-55.8-27.9-111.6-55.8-167.5-83.8c-21.5-10.8-43.1-21.5-64.6-32.3c-1.5-0.8-3.1-1.4-4.9-2.3c-0.9,2.4-1.7,4.4-2.7,6.8
		c-5.5-7.6-9.5-15.2-8.9-24.5c0.2-2.4,0.4-4.8-0.1-7.1c-2.3-11,6.5-14.8,13.1-19.9c0.9-0.7,4.2,0.4,5.3,1.6c0.9,1,0.6,3.8-0.2,5.2
		c-1.3,2-3.5,3.5-5.7,5.6c2.5,1.3,4.6,2.5,6.8,3.6c45,22.2,90,44.4,134.9,66.7c30.4,15.1,60.7,30.3,91.1,45.5
		c2.8,1.4,5.7,2.8,8.7,3.5c6.2,1.5,12,0.6,17.2-3.7c24.1-20,48.2-40,72.4-59.9c40.6-33.6,81.2-67.1,121.8-100.7
		c37.3-30.9,74.6-61.8,111.9-92.7c0.9-0.7,1.6-1.5,2.5-2.4c-4.9-5.3-11.7-9.7-8.7-19.3c9.8,4.8,19.8,8.8,28.9,14.3
		c8.6,5.2,8.7,19.4,0.8,26.2c-13.8,11.8-27.7,23.3-41.6,34.9c-3.7,3.1-7.6,6.1-11.2,9.4c-1.1,1-2.2,2.6-2.2,3.9
		c-0.1,15.6-0.1,31.2-0.1,46.8c0,0.2,0.2,0.5,0.3,0.9c8,2.2,14.4,6.5,17.9,14.4c5.7,12.6,0.4,27.7-11.8,33.5
		c-12.8,6.1-27.4,1.4-33.8-10.8c-6.4-12.3-1.9-27.7,10.3-34.3c2.5-1.4,3.2-2.8,3.2-5.5c-0.1-11.6-0.1-23.2-0.1-35.5
		c-1.6,1.2-2.9,2-4.1,3c-8.6,7.2-17.2,14.4-25.7,21.8c-1,0.9-2.1,2.4-2.1,3.6c-0.1,23-0.1,45.9-0.1,69.1c1.6,0.3,3.1,0.5,4.5,0.7
		c12.8,2.1,21.7,14.5,19.5,27.1c-2.2,12.7-15,21.9-27.1,19.7c-13.4-2.5-22.1-14.7-19.7-27.7c1-5.2,3.3-9.6,6.9-13.4
		c0.9-1,1.8-2.5,1.8-3.8c0.1-20.1,0.2-40.2,0.2-60.3c0-0.4-0.1-0.9-0.3-1.9c-3.4,2.8-6.5,5.2-9.5,7.8
		c-14.6,12.2-29.1,24.4-43.7,36.5c-2.3,1.9-3.1,3.8-3.1,6.7c0.1,12.5,0,25,0.1,37.5c0,1.6,0.8,3.3,1.5,4.8c0.7,1.5,1.9,2.7,2.5,4.2
		c2.3,5.2,5.1,8.1,11.9,7.5c8.5-0.8,15.2,5.8,17.6,14.5c2.1,7.9-1.1,16.8-8,21.4c-7.7,5.3-16.5,5.2-23.7-0.3
		c-6.6-5-9.8-14.1-6.7-21.7c1.8-4.3,1.1-7.5-1.6-10.9c-6.1-7.7-8.7-16.2-7.7-26.1c0.7-7.4,0.1-14.9,0.1-23c-1.5,1-2.5,1.5-3.4,2.3
		c-6.4,5.3-12.9,10.7-19.2,16.2c-1,0.9-1.9,2.7-1.9,4c-0.2,11.2,0,22.5-0.1,33.7c0,2.3,0.8,3.1,2.9,4c10.1,4,16.5,14,16.1,24.7
		c-0.3,10.3-7.3,19.3-17.5,23c-9.9,3.5-20.7,0.4-27.7-8c-10.3-12.3-6.2-31.5,8.5-38.8c2.9-1.5,3.9-3.1,3.8-6.3
		C452.3,611,452.5,603.5,452.5,595.1z M616.8,540.4c5.3,0,9.8-4.3,9.9-9.6c0.1-5.2-4.7-9.9-10.1-9.9c-5.1,0-9.8,4.8-9.7,9.9
		C606.9,535.9,611.6,540.4,616.8,540.4z M469.7,648.1c0.2-5.4-3.9-9.9-9.2-10.1c-5.4-0.2-10.3,4-10.3,9.1c-0.1,5.4,4,9.8,9.4,10
		C465.2,657.4,469.4,653.6,469.7,648.1z"/>
	<path class="st0" d="M339,636.1c-0.9-0.3-1.7-0.4-2.3-0.7c-4.4-2.2-8.9-4.4-13.3-6.8c-2.3-1.2-3.2-3.2-1.9-5.6
		c1.3-2.4,3.4-2.2,5.5-1.2c2.9,1.4,5.9,2.6,8.7,4.2c2.4,1.3,4.4,1.2,6.6-0.3c2.4-1.7,5-3.3,7.5-4.9c1.9-1.3,3.7-1.7,5.3,0.3
		c1.6,2,1.3,4-0.7,5.5c-3.8,2.8-7.6,5.6-11.5,8.2C341.6,635.5,340.2,635.7,339,636.1z"/>
</g>
</svg>
